<svg xmlns="http://www.w3.org/2000/svg" viewBox="0 0 512 512" fill="none">
  <!-- 背景圆 -->
  <circle cx="256" cy="256" r="240" fill="#FFF5F0" stroke="#FFE0D0" stroke-width="4"/>
  
  <!-- 汇聚线 -->
  <g stroke="#FFD4C4" stroke-width="3" stroke-linecap="round" stroke-dasharray="8 6">
    <line x1="120" y1="120" x2="220" y2="220"/>
    <line x1="392" y1="120" x2="292" y2="220"/>
    <line x1="120" y1="392" x2="220" y2="292"/>
    <line x1="392" y1="392" x2="292" y2="292"/>
  </g>
  
  <!-- 中心靶心 -->
  <circle cx="256" cy="256" r="80" fill="#FF6B35" opacity="0.15"/>
  <circle cx="256" cy="256" r="55" fill="#FF6B35" opacity="0.3"/>
  <circle cx="256" cy="256" r="30" fill="#FF6B35"/>
  
  <!-- 中心图标 - 地点标记 -->
  <path d="M256 240 L256 272" stroke="white" stroke-width="4" stroke-linecap="round"/>
  <circle cx="256" cy="256" r="8" fill="white"/>
  
  <!-- 参与者点 - 蓝 -->
  <g>
    <circle cx="100" cy="100" r="36" fill="#3498DB" opacity="0.2"/>
    <circle cx="100" cy="100" r="24" fill="#3498DB"/>
    <text x="100" y="106" text-anchor="middle" fill="white" font-size="20" font-weight="bold" font-family="sans-serif">1</text>
  </g>
  
  <!-- 参与者点 - 红 -->
  <g>
    <circle cx="412" cy="100" r="36" fill="#E74C3C" opacity="0.2"/>
    <circle cx="412" cy="100" r="24" fill="#E74C3C"/>
    <text x="412" y="106" text-anchor="middle" fill="white" font-size="20" font-weight="bold" font-family="sans-serif">2</text>
  </g>
  
  <!-- 参与者点 - 绿 -->
  <g>
    <circle cx="100" cy="412" r="36" fill="#2ECC71" opacity="0.2"/>
    <circle cx="100" cy="412" r="24" fill="#2ECC71"/>
    <text x="100" y="418" text-anchor="middle" fill="white" font-size="20" font-weight="bold" font-family="sans-serif">3</text>
  </g>
  
  <!-- 参与者点 - 紫 -->
  <g>
    <circle cx="412" cy="412" r="36" fill="#9B59B6" opacity="0.2"/>
    <circle cx="412" cy="412" r="24" fill="#9B59B6"/>
    <text x="412" y="418" text-anchor="middle" fill="white" font-size="20" font-weight="bold" font-family="sans-serif">4</text>
  </g>
</svg>

